<?xml version="1.0" encoding="UTF-8"?>
<svg id="Capa_1" data-name="Capa 1" xmlns="http://www.w3.org/2000/svg" viewBox="0 0 78.43 81.61">
  <defs>
    <style>
      .cls-1 {
        fill: #e7a52b;
      }

      .cls-1, .cls-2, .cls-3, .cls-4, .cls-5, .cls-6, .cls-7 {
        stroke-width: 0px;
      }

      .cls-2 {
        fill: #098bf5;
      }

      .cls-3 {
        fill: #2cbcfa;
      }

      .cls-4 {
        fill: #010101;
      }

      .cls-8 {
        stroke: #032863;
        stroke-miterlimit: 10;
      }

      .cls-8, .cls-5 {
        fill: #032863;
      }

      .cls-6 {
        fill: #f2d233;
      }

      .cls-7 {
        fill: #964f82;
      }
    </style>
  </defs>
  <path class="cls-2" d="M58.54,42.07c-1.08-3.47-3.32-5.72-6.88-6.62-.8-.2-1.62-.24-2.45-.24-6.53,0-13.07.1-19.6-.03-4.9-.1-8.59,2.78-9.73,6.88-.72,0-1.44,0-2.17,0,0-4.17-.02-8.33-.02-12.5,0-4.3.01-8.6-.02-12.9,0-.6.15-.75.75-.75,13.86.02,27.71.02,41.57,0,.5,0,.75.05.75.66-.02,8.41-.02,16.83-.02,25.24,0,.08-.01.16-.02.24-.72,0-1.45,0-2.17,0ZM57.56,28.45c.09-1.06.08-2.12,0-3.19.98-.2,1.25-.51,1.26-1.5,0-.77,0-1.54,0-2.31,0-1.99-1.12-3.12-3.09-3.12-11.02,0-22.03,0-33.05,0-1.93,0-3.06,1.14-3.06,3.07,0,2.79,0,5.57,0,8.36,0,1.93,1.14,3.07,3.06,3.07,2.47,0,4.94,0,7.41,0,8.57,0,17.15,0,25.72,0,1.8,0,3.01-1.17,3.01-2.88,0-.97-.27-1.3-1.26-1.5Z"/>
  <path class="cls-2" d="M39.2,63.91c-5.47,0-10.94,0-16.41.01-.59,0-.81-.11-.81-.77.03-6.21,0-12.42.02-18.63,0-3.94,2.96-6.89,6.91-6.9,6.88-.01,13.75-.01,20.63,0,3.9,0,6.87,2.96,6.88,6.85.02,6.24,0,12.48.02,18.71,0,.6-.17.75-.76.74-5.5-.02-10.99-.01-16.49-.01ZM35.15,41.26c-1.06,0-2.12,0-3.18,0-.21-1-.51-1.25-1.5-1.26-.27,0-.53,0-.8,0-3.03.03-5.26,2.27-5.27,5.31-.01,3.64-.01,7.28,0,10.91,0,3.03,2.25,5.28,5.3,5.28,6.35.01,12.69.01,19.04,0,3.05,0,5.29-2.25,5.3-5.29.01-3.64.01-7.28,0-10.91,0-3.05-2.24-5.3-5.28-5.31-4.04-.01-8.07,0-12.11,0-.99,0-1.29.26-1.5,1.26Z"/>
  <path class="cls-2" d="M65.65,63.91c-2.07,0-4.14-.01-6.21.01-.49,0-.67-.12-.62-.62.08-.84-.35-1.93.18-2.44.42-.41,1.51-.13,2.3-.14,1.96,0,3.93,0,5.89,0,1.77,0,2.94-1.18,2.95-2.94,0-1.25.01-2.49,0-3.74-.02-1.67-1.19-2.86-2.86-2.87-2.57-.02-5.15-.02-7.72.01-.6,0-.77-.16-.74-.75.05-1.22.02-2.44.01-3.66,0-.31,0-.57.44-.56,2.14.08,4.3-.19,6.44.16,3.75.63,6.7,3.95,6.8,7.75.08,3.08.01,6.16.04,9.24,0,.47-.17.57-.6.57-2.1-.02-4.19,0-6.29,0Z"/>
  <path class="cls-2" d="M36.7,7.5c-1.04,0-2.07,0-3.11,0-.23-.85-.78-1.21-1.65-1.14-.37.03-.74.02-1.11,0-1.13-.06-1.92-.86-1.97-1.99q-.1-1.99,1.87-1.99c5.98,0,11.95.02,17.92-.02.8,0,1.04.23.92.97-.04.26,0,.53,0,.8-.02,1.42-.8,2.23-2.22,2.23-3,0-6,.02-9,0-.87,0-1.43.29-1.65,1.14Z"/>
  <path class="cls-2" d="M59.51,11.63c-.73-2.07-1.36-4.18-2.2-6.21-.76-1.84-2.3-2.8-4.27-3.01-1.07-.11-1.07-.08-1.07,1.01,0,.24,0,.48,0,.72-.01,2.79-1.85,4.62-4.66,4.63-2.97,0-5.95,0-8.92,0-1.14,0-1.38-.19-1.69-1.26-1.04,0-2.07,0-3.11,0-.31,1.07-.55,1.26-1.69,1.26-.37,0-.74,0-1.11,0-2-.04-3.66-1.36-4.19-3.29-.21-.79-.15-1.58-.13-2.37.01-.54-.11-.75-.69-.72-2.16.11-3.82,1.05-4.66,3.04-.86,2.02-1.48,4.14-2.2,6.21-.12.29-.26.58-.36.88-.34,1.04-.55,1.05.75,1.05,13.32,0,26.64,0,39.96,0h.91c-.17-.71-.37-1.33-.67-1.92Z"/>
  <path class="cls-7" d="M63.12,13.45c0-1.78,0-3.56,0-5.34.01-3.61,2.65-6.01,6.24-5.73.34.03.46.12.46.46-.02.8-.02,1.59,0,2.39,0,.36-.15.43-.48.45-2.77.23-3.06.55-3.05,3.35,0,3.37,0,6.75.03,10.12,0,.55-.07.83-.72.77-.79-.07-1.85.26-2.31-.14-.53-.46-.15-1.54-.17-2.36-.03-1.33,0-2.66,0-3.98Z"/>
  <path class="cls-7" d="M6.97,42.82c.2-1.08.2-2.17,0-3.25,1.01-.12,1.29-.42,1.33-1.41.05-1.34.83-2.13,2.14-2.14,1.41-.01,2.81.01,4.22-.01.45,0,.66.08.66.61-.03,2.2-.02,4.41,0,6.61,0,.38-.07.6-.52.58-2.15-.12-4.16.37-6.01,1.47-.42.25-.5.06-.48-.33,0-.21,0-.42,0-.64,0-1.05-.29-1.37-1.33-1.49Z"/>
  <path class="cls-7" d="M70.29,41.56c0,1.14-.01,2.28,0,3.42,0,.48-.04.73-.59.39-1.81-1.1-3.78-1.64-5.91-1.55-.5.02-.7-.11-.69-.66.03-2.18.02-4.35,0-6.53,0-.48.14-.64.63-.64,1.51.03,3.02,0,4.54.02,1.16.02,1.99.86,2.01,2.03.02,1.17,0,2.33,0,3.5Z"/>
  <path class="cls-7" d="M63.12,27.98c0-1.67.02-3.35-.01-5.02-.01-.54.17-.68.68-.66,1.11.03,2.23.03,3.34,0,.6-.02.78.23.78.8-.02,3.29-.02,6.58,0,9.88,0,.54-.18.67-.68.66-1.17-.03-2.34-.04-3.5,0-.51.02-.62-.17-.62-.64.02-1.67,0-3.34,0-5.02Z"/>
  <path class="cls-2" d="M74.87,66.3c-23.17,0-46.35,0-69.52,0-.29,0-.58.02-.87.02-.42,0-.85,0-1.27-.03-.65-.06-.84.24-.81.84.04.82,0,1.65.01,2.47.02,1.2.64,1.91,1.84,2.12,5.17.89,10.34,1.77,15.51,2.66.44.08.72.05.67-.52-.05-.5-.02-1.01-.03-1.51,0-.45.01-.9.02-1.35.03-1.32.81-2.13,2.12-2.15,1.24-.02,2.49-.02,3.73,0,1.31.02,2.09.83,2.12,2.15.01.5.02,1,.03,1.51,7.21,0,14.41,0,21.62,0,.01-.55,0-1.11.03-1.66.05-1.14.83-1.96,1.96-1.99,1.35-.03,2.7-.03,4.05,0,1.12.03,1.91.85,1.96,1.99.02.5.02,1,.03,1.51,1.72,0,3.38-.46,5.06-.72,3.32-.52,6.63-1.12,9.94-1.66,1.01-.17,2.02-.34,2.95-.8,0-.56.03-1.11.03-1.67,0-1.19,0-1.19-1.16-1.19Z"/>
  <path class="cls-2" d="M28.41,72.51c7.21,0,14.41,0,21.62,0q.11,1.92-1.75,1.92c-6.28,0-12.56,0-18.84,0-1.22,0-1.04.17-1.06-1.04,0-.29.02-.58.03-.87Z"/>
  <path class="cls-2" d="M58.05,72.35c1.72,0,3.38-.46,5.06-.72,3.32-.52,6.63-1.12,9.94-1.66,1.01-.17,2.02-.34,2.95-.8.09,1.6-.42,2.32-2,2.6-5.13.9-10.27,1.76-15.4,2.64-.48.08-.61-.09-.58-.54.03-.5.02-1.01.03-1.51Z"/>
  <path class="cls-6" d="M12.76,53.57c2.12,0,4.24,0,6.36-.03.38,0,.5.1.5.49-.02,1.27-.02,2.55,0,3.82,0,.39-.12.49-.5.49-2.12-.02-4.24-.02-6.36-.03,0-1.58,0-3.15,0-4.73Z"/>
  <path class="cls-6" d="M60.89,53.57c2.06,0,4.13,0,6.19-.03.47,0,.68.17.67.65-.02,1.16-.02,2.33,0,3.49,0,.48-.2.65-.67.65-2.06-.02-4.13-.02-6.19-.03,0-1.58,0-3.15,0-4.73Z"/>
  <path class="cls-7" d="M15.31,22.83c0-.44-.17-.54-.56-.53-.72.03-1.43.02-2.15.03-.34,0-.69-.02-1.03-.02q-1.04,0-1.04,1.08c0,2.81,0,5.63,0,8.44q0,1.88,1.92,1.76c.77,0,1.54,0,2.31.04.4.02.56-.09.56-.53-.01-3.42-.01-6.85,0-10.27Z"/>
  <path class="cls-2" d="M19.62,61.4c.06-.58-.17-.7-.71-.7-2.55.03-5.1.02-7.65,0-1.79,0-2.95-1.16-2.96-2.93,0-1.17,0-2.34,0-3.51,0-2.01,1.1-3.12,3.1-3.12,2.52,0,5.05-.02,7.57.01.53,0,.68-.15.66-.67-.04-1.25-.03-2.5,0-3.74,0-.41-.11-.56-.53-.56-1.86.02-3.72-.04-5.58.02-1.32.04-2.55.47-3.63,1.25-2.54,1.53-3.84,3.83-3.94,6.73-.11,2.85-.03,5.71-.03,8.57q0,1.17,1.2,1.12s.05,0,.08-.01c3.32,0,6.64.02,9.96.02.79,0,1.84.34,2.31-.13.51-.5.09-1.56.17-2.37Z"/>
  <path class="cls-7" d="M15.29,7.72c-.03-2.99-2.42-5.3-5.41-5.33q-1.27-.01-1.27,1.22c0,.42.04.85,0,1.27-.08.69.2.88.85.81,1.07-.13,1.92.23,2.51,1.17.17.48.19.98.19,1.49-.01,3.5-.01,7.01-.02,10.51q0,1.1,1.12,1.03c.5.01,1.01,0,1.51.04.48.04.56-.17.56-.6-.01-3.87.02-7.74-.02-11.61Z"/>
  <path class="cls-1" d="M60.89,53.57c0,1.58,0,3.15,0,4.73q-2.07.1-2.07-1.97c0-.77.02-1.53,0-2.3-.01-.38.11-.51.49-.49.53.03,1.06.02,1.59.03Z"/>
  <path class="cls-1" d="M12.76,53.57c0,1.58,0,3.15,0,4.73-2.56.05-2.01.26-2.07-1.97-.02-.68.02-1.37,0-2.05-.02-.55.19-.77.74-.74.45.03.89.02,1.34.03Z"/>
  <path class="cls-8" d="M18.37,76.54c-2.46-.35-4.89-.92-7.36-1.18q-1.92-.6-1.91,1.33s0,.05,0,.08c0,1.73.82,2.5,2.56,2.4,1.75,0,3.5.05,5.25.02,1.11-.02,1.92-.95,1.92-2.04,0-.35-.09-.56-.45-.61Z"/>
  <path class="cls-6" d="M24.07,71.26q1.91-.09,1.91,1.73,0,1.44-1.44,1.43c-.16,0-.32-.01-.47-.02,0-1.05,0-2.09,0-3.14Z"/>
  <path class="cls-6" d="M53.72,71.26q1.91-.09,1.91,1.73,0,1.44-1.44,1.43c-.16,0-.32-.01-.47-.02,0-1.05,0-2.09,0-3.14Z"/>
  <path class="cls-5" d="M70.49,75c0-.07,0-.15,0-.22.04-.48-.15-.67-.56-.59-2.94.6-5.89,1.19-8.83,1.78-.53.07-1.07.15-1.6.21-.55.06-.74.38-.72,1.02.04,1.35,1.15,3.04,3.09,2.65,1.5.01,3-.04,4.49.06,3.88.24,4.29-1.23,4.13-4.91Z"/>
  <path class="cls-1" d="M24.07,71.26c0,1.05,0,2.09,0,3.14q-1.27.06-1.27-1.17c0-.26,0-.53,0-.79q0-1.23,1.27-1.17Z"/>
  <path class="cls-1" d="M53.72,71.26c0,1.05,0,2.09,0,3.14q-1.27.06-1.27-1.17c0-.26,0-.53,0-.79q0-1.23,1.27-1.17Z"/>
  <path class="cls-2" d="M58.54,42.07c.72,0,1.45,0,2.17,0,0,.21.03.42.02.63-.02,1.29.18,1.06-1.14,1.13-.59.03-.87-.16-.9-.75-.02-.34-.1-.67-.15-1.01Z"/>
  <path class="cls-2" d="M17.72,42.07c.72,0,1.44,0,2.17,0-.06.39-.14.78-.18,1.17-.04.45-.23.62-.71.59-1.46-.1-1.34.43-1.28-1.76Z"/>
  <path class="cls-3" d="M31.97,41.26c1.06,0,2.12,0,3.18,0,.17.86.71,1.14,1.55,1.14,4.01-.02,8.01-.01,12.02,0,1.72,0,2.92,1.18,2.93,2.88.01,3.66.01,7.32,0,10.99,0,1.66-1.21,2.86-2.87,2.86-6.37,0-12.74,0-19.11,0-1.67,0-2.87-1.2-2.88-2.85-.01-3.69-.01-7.38,0-11.07,0-1.61,1.22-2.79,2.83-2.82.29,0,.58-.01.88,0,.82.04,1.31-.33,1.47-1.13ZM39.28,51.95c2.92,0,5.84,0,8.76,0,.85,0,1.38-.5,1.37-1.22-.01-.69-.53-1.17-1.34-1.17-5.84,0-11.68,0-17.53,0-.63,0-1.09.24-1.31.83-.3.82.34,1.56,1.36,1.56,2.89,0,5.79,0,8.68,0ZM39.29,44.78c-2.89,0-5.79,0-8.68,0-.93,0-1.51.55-1.43,1.31.07.69.6,1.07,1.51,1.08,4.06,0,8.13,0,12.19,0,1.73,0,3.45,0,5.18,0,.84,0,1.38-.52,1.35-1.23-.02-.71-.56-1.15-1.43-1.15-2.89,0-5.79,0-8.68,0ZM39.3,56.74c2.89,0,5.79,0,8.68,0,.93,0,1.51-.55,1.43-1.32-.07-.69-.6-1.07-1.51-1.07-4.06,0-8.13,0-12.19,0-1.73,0-3.45,0-5.18,0-.87,0-1.43.57-1.35,1.31.07.67.59,1.07,1.43,1.07,2.89,0,5.79,0,8.68,0Z"/>
  <path class="cls-5" d="M39.28,51.95c-2.89,0-5.79,0-8.68,0-1.02,0-1.65-.74-1.36-1.56.22-.6.68-.83,1.31-.83,5.84,0,11.68,0,17.53,0,.8,0,1.32.48,1.34,1.17.01.71-.52,1.21-1.37,1.22-2.92,0-5.84,0-8.76,0Z"/>
  <path class="cls-5" d="M39.29,44.78c2.89,0,5.79,0,8.68,0,.88,0,1.41.44,1.43,1.15.02.71-.51,1.22-1.35,1.23-1.73.01-3.45,0-5.18,0-4.06,0-8.13,0-12.19,0-.91,0-1.44-.38-1.51-1.08-.08-.76.5-1.31,1.43-1.31,2.89,0,5.79,0,8.68,0Z"/>
  <path class="cls-5" d="M39.3,56.74c-2.89,0-5.79,0-8.68,0-.84,0-1.36-.4-1.43-1.07-.08-.74.48-1.31,1.35-1.31,1.73-.01,3.45,0,5.18,0,4.06,0,8.13,0,12.19,0,.91,0,1.44.38,1.51,1.07.08.76-.5,1.31-1.43,1.32-2.89,0-5.79,0-8.68,0Z"/>
  <path class="cls-5" d="M58.82,21.45c0-1.99-1.12-3.12-3.09-3.12-11.02,0-22.03,0-33.05,0-1.93,0-3.06,1.14-3.06,3.07,0,2.79,0,5.57,0,8.36,0,1.93,1.14,3.07,3.06,3.07,2.47,0,4.94,0,7.41,0,8.57,0,17.15,0,25.72,0,1.8,0,3.01-1.17,3.01-2.88v-6.36c0-.71,0-1.42,0-2.13ZM55.36,30.44c-10.78,0-21.56,0-32.35.02-.81,0-1.05-.22-1.03-1.03.05-2.55.02-5.1.02-7.65q0-1.09,1.12-1.03c.13,0,.26-.03.4-.03,10.69,0,21.38,0,32.07,0,.08,0,.16,0,.24,0,.44-.03.62.19.61.62,0,.57,0,1.13,0,1.7v.16c0,.2,0,.41,0,.61,0,.09,0,.18,0,.26v5.24s0,0,0,.01q0,1.12-1.06,1.12Z"/>
  <path class="cls-5" d="M78.42,66.8c-.02-1.69-1.16-2.88-2.84-2.88-.57,0-.69-.16-.68-.7.03-2.73,0-5.47.02-8.2.02-2.43-.58-4.67-2-6.65-.22-.31-.24-.62-.24-.97,0-3.03-.01-6.05,0-9.08,0-1.69-.61-3.06-2.05-3.98-.38-.25-.35-.54-.35-.88,0-3.48-.01-6.96,0-10.44,0-1.12-.35-2.03-1.31-2.64-.28-.18-.3-.39-.3-.66,0-3.69,0-7.38-.03-11.07,0-.52.18-.62.64-.59.56.03,1.12.03,1.67,0,.8-.06,1.22-.49,1.23-1.28.02-1.83,0-3.66.01-5.5,0-.61-.37-.95-.8-1.27h-4.14c-.35.25-.78.23-1.16.37-2.89,1.08-4.65,3.11-5.23,6.14-.06.31-.11.62-.19,1.08-.28-.78-.52-1.43-.74-2.08-1.02-2.97-2.98-4.86-6.14-5.39-.03,0-.05-.08-.08-.12h-29.33c-.11.28-.4.22-.61.28-2.51.75-4.21,2.35-5.13,4.79-.3.79-.57,1.59-.89,2.49-.14-.67-.21-1.25-.39-1.81-.97-3.09-2.97-5.05-6.22-5.61-.06-.01-.11-.09-.16-.14h-3.98c-.64.38-.83.93-.81,1.67.04,1.64,0,3.29.02,4.94,0,.98.41,1.4,1.39,1.45.03,0,.05,0,.08,0,.67.06,1.6-.31,1.95.16.33.45.1,1.32.1,2.01,0,3.08-.02,6.16,0,9.24,0,.45-.08.76-.49,1.05-.82.57-1.12,1.42-1.12,2.42.01,3.5,0,7.01.01,10.51,0,.48-.09.8-.52,1.12-1.21.89-1.74,2.16-1.72,3.66,0,.06,0,.11,0,.16v5.76c0,.19-.02.37,0,.56.11,1.73-.04,3.33-1.13,4.86-1.02,1.44-1.26,3.24-1.26,5.02,0,2.87-.01,5.74.01,8.6,0,.51-.05.73-.66.73-1.69,0-2.83,1.17-2.86,2.86-.01.96,0,1.91,0,2.87.02,2.3,1.52,4.06,3.77,4.44.73.12,1.46.27,2.2.34.59.06.76.32.74.91-.02.95-.12,1.91.1,2.86.47,1.97,2.15,3.36,4.18,3.39,1.96.03,3.93.03,5.9,0,2.32-.04,4.17-1.84,4.29-4.17.02-.47.11-.61.61-.61,11.6.02,23.21.02,34.81,0,.46,0,.62.07.64.59.1,2.37,1.97,4.17,4.34,4.2,1.94.02,3.88.03,5.82,0,2.39-.04,4.26-1.92,4.32-4.32.02-.72.04-1.44,0-2.15-.03-.45.15-.6.56-.65.73-.1,1.47-.24,2.2-.36,2.49-.42,3.94-2.1,3.95-4.6,0-.9,0-1.81,0-2.71ZM70.29,38.05c.02,1.17,0,2.33,0,3.5,0,1.14-.01,2.28,0,3.42,0,.48-.04.73-.59.39-1.81-1.1-3.78-1.64-5.91-1.55-.5.02-.7-.11-.69-.66.03-2.18.02-4.35,0-6.53,0-.48.14-.64.63-.64,1.51.03,3.02,0,4.54.02,1.16.02,1.99.86,2.01,2.03ZM67.92,32.98c0,.54-.18.67-.68.66-1.17-.03-2.34-.04-3.5,0-.51.02-.62-.17-.62-.64.02-1.67,0-3.34,0-5.02,0-1.67.02-3.35-.01-5.02-.01-.54.17-.68.68-.66,1.11.03,2.23.03,3.34,0,.6-.02.78.23.78.8-.02,3.29-.02,6.58,0,9.88ZM63.13,17.43c-.03-1.33,0-2.66,0-3.98,0-1.78,0-3.56,0-5.34.01-3.61,2.65-6.01,6.24-5.73.34.03.46.12.46.46-.02.8-.02,1.59,0,2.39,0,.36-.15.43-.48.45-2.77.23-3.06.55-3.05,3.35,0,3.37,0,6.75.03,10.12,0,.55-.07.83-.72.77-.79-.07-1.85.26-2.31-.14-.53-.46-.15-1.54-.17-2.36ZM65.69,46.37c3.75.63,6.7,3.95,6.8,7.75.08,3.08.01,6.16.04,9.24,0,.47-.17.57-.6.57-2.1-.02-4.19,0-6.29,0-2.07,0-4.14-.01-6.21.01-.49,0-.67-.12-.62-.62.08-.84-.35-1.93.18-2.44.42-.41,1.51-.13,2.3-.14,1.96,0,3.93,0,5.89,0,1.77,0,2.94-1.18,2.95-2.94,0-1.25.01-2.49,0-3.74-.02-1.67-1.19-2.86-2.86-2.87-2.57-.02-5.15-.02-7.72.01-.6,0-.77-.16-.74-.75.05-1.22.02-2.44.01-3.66,0-.31,0-.57.44-.56,2.14.08,4.3-.19,6.44.16ZM67.75,57.68c0,.48-.2.65-.67.65-2.06-.02-4.13-.02-6.19-.03q-2.07.1-2.07-1.97c0-.77.02-1.53,0-2.3-.01-.38.11-.51.49-.49.53.03,1.06.02,1.59.03,2.06,0,4.13,0,6.19-.03.47,0,.68.17.67.65-.02,1.16-.02,2.33,0,3.49ZM18.56,12.5c.1-.3.24-.58.36-.88.73-2.07,1.35-4.19,2.2-6.21.84-1.98,2.5-2.93,4.66-3.04.58-.03.71.18.69.72-.02.79-.09,1.59.13,2.37.53,1.93,2.19,3.25,4.19,3.29.1,0,.21,0,.31,0h0s.01,0,.01,0c.16,0,.31,0,.47,0h7.99c2.58,0,5.16,0,7.73,0,2.8,0,4.64-1.84,4.66-4.63,0-.24,0-.48,0-.72,0-1.09,0-1.12,1.07-1.01,1.97.2,3.51,1.17,4.27,3.01.84,2.03,1.48,4.14,2.2,6.21.3.59.5,1.21.67,1.92h-.91c-13.32,0-26.64,0-39.96,0-1.3,0-1.09,0-.75-1.05ZM18.43,15.92c13.86.02,27.71.02,41.57,0,.5,0,.75.05.75.66-.02,8.41-.02,16.83-.02,25.24,0,.08-.01.16-.02.24,0,.21.03.42.02.63-.02,1.29.18,1.06-1.14,1.13-.59.03-.87-.16-.9-.75-.02-.34-.1-.67-.15-1.01-1.08-3.47-3.32-5.72-6.88-6.62-.8-.2-1.62-.24-2.45-.24-6.53,0-13.07.1-19.6-.03-4.9-.1-8.59,2.78-9.73,6.88-.06.39-.14.78-.18,1.17-.04.45-.23.62-.71.59-1.46-.1-1.34.43-1.28-1.76,0-4.17-.02-8.33-.02-12.5,0-4.3.01-8.6-.02-12.9,0-.6.15-.75.75-.75ZM22.01,44.52c0-3.94,2.96-6.89,6.91-6.9,6.88-.01,13.75-.01,20.63,0,3.9,0,6.87,2.96,6.88,6.85.02,6.24,0,12.48.02,18.71,0,.6-.17.75-.76.74-5.5-.02-10.99-.01-16.49-.01-5.47,0-10.94,0-16.41.01-.59,0-.81-.11-.81-.77.03-6.21,0-12.42.02-18.63ZM9.45,5.69c-.64.08-.93-.12-.85-.81.05-.42,0-.85,0-1.27q0-1.23,1.27-1.22c2.98.03,5.37,2.34,5.41,5.33.04,3.87,0,7.74.02,11.61,0,.43-.08.64-.56.6-.5-.04-1.01-.03-1.51-.04q-1.13.07-1.12-1.03c0-3.5,0-7.01.02-10.51,0-.51-.02-1.01-.19-1.49-.58-.93-1.44-1.29-2.51-1.17ZM15.31,33.1c0,.44-.17.54-.56.53-.77-.03-1.54-.03-2.31-.04q-1.92.12-1.92-1.76c0-2.81,0-5.63,0-8.44q0-1.08,1.04-1.08c.34,0,.69.01,1.03.02.72,0,1.43,0,2.15-.03.39-.02.57.09.56.53-.01,3.42-.01,6.85,0,10.27ZM8.26,38.55h0c.02-.11.03-.24.03-.38.05-1.34.83-2.13,2.14-2.14,1.41-.01,2.81.01,4.22-.01.45,0,.66.08.66.61-.03,2.2-.02,4.41,0,6.61,0,.38-.07.6-.52.58-2.15-.12-4.16.37-6.01,1.47-.42.25-.5.06-.48-.33,0-.21,0-.42,0-.64l-.03-5.76ZM5.93,54.2c.11-2.9,1.41-5.2,3.94-6.73,1.08-.78,2.31-1.21,3.63-1.25,1.86-.06,3.72,0,5.58-.02.43,0,.54.15.53.56-.02,1.25-.03,2.5,0,3.74.01.52-.13.67-.66.67-2.52-.03-5.05-.02-7.57-.01-1.99,0-3.09,1.11-3.1,3.12,0,1.17,0,2.34,0,3.51.01,1.77,1.17,2.93,2.96,2.93,2.55,0,5.1.02,7.65,0,.54,0,.77.12.71.7-.08.81.34,1.87-.17,2.37-.47.46-1.51.13-2.31.13-3.32,0-6.64-.01-9.96-.02-.03,0-.05,0-.08.01q-1.2.04-1.2-1.12c0-2.86-.08-5.72.03-8.57ZM19.62,57.85c0,.39-.12.49-.5.49-2.12-.02-4.24-.02-6.36-.03-2.56.05-2.01.26-2.07-1.97-.02-.68.02-1.37,0-2.05-.02-.55.19-.77.74-.74.45.03.89.02,1.34.03,2.12,0,4.24,0,6.36-.03.38,0,.5.1.5.49-.02,1.27-.02,2.55,0,3.82ZM16.9,79.19c-1.75.03-3.5,0-5.25-.02-1.73.1-2.55-.67-2.56-2.4,0-.03,0-.05,0-.08q0-1.93,1.91-1.33c2.48.26,4.9.83,7.36,1.18.36.05.45.26.45.61,0,1.08-.81,2.02-1.92,2.04ZM24.55,74.43c-.16,0-.32-.01-.47-.02q-1.27.06-1.27-1.17v-.79q0-1.23,1.27-1.17,1.91-.09,1.91,1.73,0,1.44-1.44,1.43ZM54.19,74.43c-.16,0-.32-.01-.47-.02q-1.27.06-1.27-1.17c0-.26,0-.53,0-.79q0-1.23,1.27-1.17,1.91-.09,1.91,1.73,0,1.44-1.44,1.43ZM65.91,79.22c-1.24-.07-2.49-.03-3.73-.04-1.61.28-2.53-.94-2.56-1.92-.02-.46.14-.69.59-.74.44-.04.89-.1,1.33-.15,2.45-.43,4.89-.86,7.34-1.29.35-.06.5.08.47.43,0,.05,0,.11,0,.16.13,2.67-.21,3.74-3.43,3.57ZM76.03,67.49c0,.56-.02,1.11-.03,1.67.09,1.6-.42,2.32-2,2.6-5.13.9-10.27,1.76-15.4,2.64-.48.08-.61-.09-.58-.54.03-.5.02-1.01.03-1.51,0-.5,0-1-.03-1.51-.05-1.14-.83-1.96-1.96-1.99-1.35-.03-2.7-.03-4.05,0-1.13.03-1.91.85-1.96,1.99-.02.55-.02,1.11-.03,1.66q.11,1.92-1.75,1.92c-6.28,0-12.56,0-18.84,0-1.22,0-1.04.17-1.06-1.04,0-.29.02-.58.03-.87,0-.5-.02-1-.03-1.51-.03-1.32-.81-2.13-2.12-2.15-1.24-.02-2.49-.02-3.73,0-1.31.02-2.09.83-2.12,2.15,0,.45-.02.9-.02,1.35,0,.5-.01,1.01.03,1.51.05.57-.23.59-.67.52-5.17-.89-10.34-1.77-15.51-2.66-1.2-.21-1.82-.92-1.84-2.12-.01-.82.02-1.65-.01-2.47-.03-.61.17-.9.81-.84.42.04.85.02,1.27.03.29,0,.58-.02.87-.02,23.17,0,46.35,0,69.52,0,1.16,0,1.16,0,1.16,1.19Z"/>
  <path class="cls-4" d="M54.03,45.31c0-3.05-2.24-5.3-5.28-5.31-3.19-.01-6.37,0-9.56,0h0s-9.54,0-9.54,0h0c-3.03.03-5.26,2.27-5.27,5.32-.01,3.64-.01,7.28,0,10.91,0,3.03,2.25,5.28,5.3,5.28,6.35.01,12.69.01,19.04,0,3.05,0,5.29-2.25,5.3-5.29.01-3.64.01-7.28,0-10.91ZM51.64,56.26c0,1.66-1.21,2.86-2.87,2.86-6.37,0-12.74,0-19.11,0-1.67,0-2.87-1.2-2.88-2.85-.01-3.69-.01-7.38,0-11.07,0-1.61,1.22-2.79,2.83-2.82h.84s.03,0,.04,0c.09,0,.17,0,.26,0h5.71c.08,0,.15,0,.23,0,4.01-.02,8.01-.01,12.02,0,1.72,0,2.92,1.18,2.93,2.88.01,3.66.01,7.32,0,10.99Z"/>
  <path class="cls-4" d="M54.03,45.3c0-3.05-2.24-5.3-5.28-5.31-3.19-.01-6.37,0-9.56,0h0s-9.54,0-9.54,0h0c-3.03.03-5.26,2.27-5.27,5.32-.01,3.64-.01,7.28,0,10.91,0,3.03,2.25,5.28,5.3,5.28,6.35.01,12.69.01,19.04,0,3.05,0,5.29-2.25,5.3-5.29.01-3.64.01-7.28,0-10.91ZM51.64,56.25c0,1.66-1.21,2.86-2.87,2.86-6.37,0-12.74,0-19.11,0-1.67,0-2.87-1.2-2.88-2.85-.01-3.69-.01-7.38,0-11.07,0-1.61,1.22-2.79,2.83-2.82h.84s.03,0,.04,0c.09,0,.17,0,.26,0h5.71c.08,0,.15,0,.23,0,4.01-.02,8.01-.01,12.02,0,1.72,0,2.92,1.18,2.93,2.88.01,3.66.01,7.32,0,10.99Z"/>
  <path class="cls-4" d="M54.03,45.26c0-3.05-2.24-5.3-5.28-5.31-3.19-.01-6.37,0-9.56,0h0s-9.54,0-9.54,0h0c-3.03.03-5.26,2.27-5.27,5.32-.01,3.64-.01,7.28,0,10.91,0,3.03,2.25,5.28,5.3,5.28,6.35.01,12.69.01,19.04,0,3.05,0,5.29-2.25,5.3-5.29.01-3.64.01-7.28,0-10.91ZM51.64,56.21c0,1.66-1.21,2.86-2.87,2.86-6.37,0-12.74,0-19.11,0-1.67,0-2.87-1.2-2.88-2.85-.01-3.69-.01-7.38,0-11.07,0-1.61,1.22-2.79,2.83-2.82h.84s.03,0,.04,0c.09,0,.17,0,.26,0h5.71c.08,0,.15,0,.23,0,4.01-.02,8.01-.01,12.02,0,1.72,0,2.92,1.18,2.93,2.88.01,3.66.01,7.32,0,10.99Z"/>
  <path class="cls-5" d="M54.03,45.22c0-3.05-2.24-5.3-5.28-5.31-3.19-.01-6.37,0-9.56,0h0s-9.54,0-9.54,0h0c-3.03.03-5.26,2.27-5.27,5.32-.01,3.64-.01,7.28,0,10.91,0,3.03,2.25,5.28,5.3,5.28,6.35.01,12.69.01,19.04,0,3.05,0,5.29-2.25,5.3-5.29.01-3.64.01-7.28,0-10.91ZM51.64,56.17c0,1.66-1.21,2.86-2.87,2.86-6.37,0-12.74,0-19.11,0-1.67,0-2.87-1.2-2.88-2.85-.01-3.69-.01-7.38,0-11.07,0-1.61,1.22-2.79,2.83-2.82h.84s.03,0,.04,0c.09,0,.17,0,.26,0h5.71c.08,0,.15,0,.23,0,4.01-.02,8.01-.01,12.02,0,1.72,0,2.92,1.18,2.93,2.88.01,3.66.01,7.32,0,10.99Z"/>
</svg>